<svg width="2880" height="2140" viewBox="0 0 2880 2140" fill="none" xmlns="http://www.w3.org/2000/svg">
<g clip-path="url(#clip0_1232_510)">
<path d="M1457.81 1090.06H1457.47C1450.7 1090.06 1444.75 1103.8 1446.22 1116.77C1447.58 1128.81 1464.2 1140.36 1477.55 1141.14C1486.28 1141.68 1467.03 1090.74 1457.81 1090.06Z" fill="#FBF3E8"/>
<path d="M1894.15 960.255C1890.74 953.285 1883.67 938.857 1821.63 924.087C1801.06 919.213 1782.25 916.24 1774.79 915.216C1758.95 913.12 1743.5 912.828 1731.95 920.09C1730.3 918.579 1728.69 917.068 1727.08 915.655C1710.7 902.835 1681.9 896.743 1660.6 893.867C1643.87 891.357 1626.92 890.491 1610.02 891.283H1609.53C1607.26 891.647 1605.01 892.152 1602.8 892.794C1595.9 888.405 1587.97 885.886 1579.8 885.483C1564.84 884.118 1544.32 883.289 1531.06 886.75C1528.82 887.355 1526.63 888.154 1524.53 889.139C1509.18 880.121 1485.54 879.097 1480.67 878.951C1470.17 878.486 1459.69 880.161 1449.87 883.874C1445.38 881.736 1440.57 880.368 1435.64 879.829C1432.08 879.439 1424.18 879.244 1414.05 879.244C1396.74 879.244 1372.96 879.829 1353.32 880.95C1330.66 882.12 1306.19 884.313 1297.18 885.824C1292.78 886.686 1288.52 888.128 1284.5 890.113C1278.13 888.525 1271.52 888.144 1265.01 888.992C1250.05 890.698 1229.77 893.623 1217.59 899.765C1215.46 900.763 1213.44 901.971 1211.55 903.372C1194.73 897.474 1171.24 900.983 1166.27 901.861C1154.38 903.356 1143.05 907.814 1133.32 914.826C1132.64 914.826 1132.01 914.436 1131.23 914.29C1114.07 911.268 1084.34 916.922 1062.32 922.186C1045.42 926.195 1028.75 931.075 1012.36 936.809C992.867 943.78 986.141 956.307 983.802 963.082C982.14 967.913 981.605 973.06 982.239 978.129C982.873 983.198 984.657 988.055 987.457 992.328C988.042 993.254 988.724 994.229 989.455 995.252C993.618 1001.13 996.902 1007.58 999.202 1014.41C1002.59 1027.05 1004.84 1039.97 1005.93 1053.01C1006.71 1059.69 1007.49 1065.98 1008.32 1070.85V1072.17C1011.29 1090.01 1014.94 1112.14 1034 1122.86C1041.72 1126.59 1050.24 1128.37 1058.81 1128.03C1069.03 1127.85 1079.21 1126.5 1089.12 1123.98C1091.46 1123.35 1093.99 1122.67 1096.14 1121.94C1092.06 1134.51 1090.49 1147.75 1091.51 1160.93C1095.12 1212.06 1126.99 1249.64 1172.65 1256.71C1176.83 1257.34 1181.05 1257.65 1185.28 1257.64C1191.33 1257.62 1197.37 1257.03 1203.31 1255.88C1214.13 1253.62 1224.68 1250.22 1234.79 1245.74L1236.84 1244.87H1237.67C1242.19 1245.39 1246.75 1245.39 1251.27 1244.87C1256.38 1244.07 1261.32 1242.42 1265.89 1239.99C1271.13 1237.46 1275.53 1233.46 1278.56 1228.49C1292.57 1234.99 1307.85 1238.32 1323.3 1238.24C1326.56 1238.24 1329.83 1238.24 1333.05 1237.8C1351.17 1236.25 1368.69 1230.57 1384.27 1221.18C1385.95 1220.16 1387.58 1219.06 1389.14 1217.86C1393.67 1223.09 1399.3 1227.24 1405.63 1230.03C1411.96 1232.81 1418.83 1234.15 1425.74 1233.95C1428.29 1233.92 1430.83 1233.72 1433.35 1233.36C1442.86 1232.51 1451.96 1229.04 1459.61 1223.32C1470.5 1230.22 1483.04 1234.05 1495.92 1234.39H1499.14H1499.68C1504.48 1234.39 1509.24 1233.57 1513.76 1231.95C1519.44 1234.81 1525.64 1236.47 1531.99 1236.82L1537.79 1237.26C1550.22 1238.09 1580.53 1241.55 1600.17 1244.13L1603.05 1244.52C1607.76 1245.26 1612.51 1245.72 1617.28 1245.89H1617.67C1625.39 1246.11 1633 1243.95 1639.45 1239.7C1651.31 1248.13 1664.73 1254.11 1678.93 1257.3C1681.02 1257.88 1683.17 1258.32 1685.56 1258.81C1692.65 1260.22 1699.86 1260.96 1707.1 1261C1743.94 1261 1768.55 1240.43 1777.42 1217.13C1784.17 1199.68 1784.17 1180.33 1777.42 1162.88C1783.63 1158.27 1788.47 1152.08 1791.45 1144.95C1794.42 1137.82 1795.42 1130.02 1794.34 1122.37L1797.7 1123.3C1807.94 1126.14 1818.47 1127.78 1829.09 1128.17H1830.01C1836.3 1128.36 1842.52 1126.91 1848.08 1123.97C1853.64 1121.03 1858.35 1116.7 1861.74 1111.41C1877.19 1087.04 1859.4 1051.45 1857.35 1047.51C1853.82 1040.5 1848.97 1034.25 1843.07 1029.08C1843.4 1028.2 1843.69 1027.33 1843.95 1026.45V1026.11L1848.19 1025.72C1857.25 1024.72 1865.95 1021.64 1873.62 1016.72C1881.29 1011.8 1887.72 1005.17 1892.39 997.348C1895.67 991.769 1897.53 985.479 1897.84 979.018C1898.15 972.557 1896.88 966.118 1894.15 960.255V960.255ZM1594.81 929.547C1595.69 920.87 1605.68 916.289 1613.04 915.216C1627.58 914.835 1642.13 915.764 1656.51 917.995C1677.37 920.968 1699.84 926.72 1710.12 935.103C1736.44 956.209 1726.88 993.595 1707.15 1005.05C1691.75 1014.26 1689.16 1010.75 1691.84 1019.19C1694.52 1027.62 1712.46 1047.51 1710.31 1059.4C1708.17 1071.29 1703.3 1074.02 1685.95 1070.95C1664.75 1067 1651.83 1053.79 1649.05 1043.9C1646.86 1036.98 1648.08 1035.03 1650.71 1035.47C1653.5 1036.33 1656.1 1037.72 1658.36 1039.56C1660.21 1041.21 1662.41 1042.41 1664.79 1043.07C1667.23 1043.46 1668.3 1041.51 1666.16 1035.03C1662.99 1025.28 1646.66 1000.61 1633.7 998.859C1626.44 997.885 1623.95 1005.78 1626 1013.48C1628.83 1022.79 1640.13 1044.19 1640.62 1052.96C1641.45 1063.74 1627.76 1063.69 1616.25 1062.13C1607.48 1060.96 1592.52 1058.62 1589.25 1049.94C1585.7 1040.19 1594.86 1007.63 1596.17 993.108C1597.68 974.975 1593.93 938.077 1594.81 929.547V929.547ZM1302.39 909.367C1308.68 908.197 1330.61 905.906 1354.73 904.493C1388.85 902.397 1427.84 902.445 1432.71 903.079C1443.34 904.249 1445.77 909.708 1444.8 928.377C1443.82 947.045 1447.43 962.789 1429.11 962.497C1414 962.497 1404.74 944.657 1410.15 940.319C1411.26 939.806 1412.48 939.572 1413.71 939.636H1416.53C1418.77 939.636 1420.82 939.636 1421.41 938.223C1423.01 934.08 1410.88 922.528 1403.62 922.869C1402.76 922.809 1401.9 922.978 1401.13 923.356C1389.63 930.034 1404.01 1017.14 1406.54 1030.59C1407.76 1036.15 1407.56 1043.51 1403.96 1046.48C1400.35 1049.45 1390.75 1051.6 1381.64 1052.04C1372.52 1052.48 1362.43 1051.21 1359.61 1047.89C1355.08 1042.44 1355.42 1040.49 1357.17 1016.8C1358.93 993.108 1365.75 928.231 1358.49 924.185C1356.46 923.126 1354.18 922.67 1351.91 922.869C1338.26 923.649 1317.21 939.539 1318.52 944.754C1318.64 946.008 1319.01 947.223 1319.62 948.326C1320.23 949.428 1321.06 950.394 1322.05 951.162C1323.05 951.93 1324.19 952.485 1325.41 952.791C1326.64 953.098 1327.91 953.15 1329.15 952.943C1337.34 951.871 1332.46 946.509 1331.97 943.195C1331.97 941.391 1334.75 939.783 1338.7 939.539C1340.44 939.274 1342.21 939.412 1343.88 939.943C1345.56 940.473 1347.09 941.38 1348.35 942.596C1349.62 943.811 1350.59 945.302 1351.19 946.953C1351.79 948.603 1352 950.369 1351.81 952.115C1351.32 966.445 1338.46 977.802 1321.11 979.265C1286.99 979.752 1292.6 944.316 1290.89 932.471C1289.33 922.869 1287.43 912.487 1302.49 909.367H1302.39ZM1171.24 926.622C1184.99 924.039 1200 924.477 1205.36 927.353C1217.59 934.421 1216.03 965.568 1203.16 967.713H1202.43C1195.46 968.297 1199.22 952.212 1189.91 950.75C1189.46 950.68 1189 950.68 1188.54 950.75C1181.82 952.115 1182.84 969.37 1187.47 981.361C1199.65 1011.58 1229.82 1044.73 1243.42 1042.78C1244.07 1042.66 1244.71 1042.46 1245.32 1042.19C1258.43 1036.2 1247.86 966.396 1233.87 945.681C1224.8 932.228 1221.78 925.501 1229.29 921.845C1238.35 917.312 1257.7 914.485 1268.28 913.315C1287.77 911.073 1282.07 920.578 1281.29 934.421C1280.51 948.264 1294.5 998.274 1287.77 1029.76C1283.29 1049.8 1260.33 1063.4 1236.16 1067.2C1222.24 1069.73 1207.89 1068.12 1194.88 1062.57C1161.59 1047.16 1148.29 955.088 1146.14 943.585C1144.58 934.811 1157.11 929.205 1171.24 926.622ZM1094.09 1036.49C1087.01 1034.7 1079.64 1034.32 1072.4 1035.37C1067.97 1036.59 1065.58 1039.61 1068.99 1045.7C1076.55 1058.86 1095.51 1072.22 1101.11 1077.77C1106.71 1083.33 1110.86 1089.86 1096.77 1096.39C1093.61 1097.74 1090.35 1098.86 1087.03 1099.76C1074.55 1103.12 1057.78 1105.12 1050.96 1101.66C1042.58 1097.13 1040.09 1082.6 1037.31 1068.17C1034.54 1053.74 1031.95 1023.38 1025.86 1007.44C1022.19 997.707 1017.1 988.574 1010.75 980.337C1007.39 975.463 1009.83 967.518 1022.45 962.692C1037.81 957.012 1053.46 952.131 1069.33 948.069C1092.34 942.122 1116.9 937.833 1127.82 939.588C1142.97 942.025 1142.68 962.594 1144.39 971.32C1146.09 980.045 1134.25 985.114 1121.29 989.013C1116.41 990.086 1098.67 992.913 1096.92 987.746C1094.34 980.581 1116.41 971.856 1107.69 965.227C1105.01 963.033 1096.48 963.667 1086.78 966.055C1068.31 970.588 1046.18 981.897 1052.67 990.183C1060.03 999.396 1072.89 1005.44 1081.91 1003.1C1082.51 1002.96 1083.1 1002.76 1083.66 1002.52C1088.24 1000.71 1089.61 998.518 1093.07 997.641C1095.18 997.235 1097.34 997.235 1099.45 997.641C1108.66 999.103 1130.64 1029.47 1122.07 1036.88C1120.36 1038.4 1118.3 1039.48 1116.07 1040C1109.4 1041.66 1101.65 1038.29 1094.09 1036.49ZM1197.36 1120.57C1200.43 1114.92 1186.2 1107.36 1173 1107.75C1171.73 1107.78 1170.47 1107.94 1169.24 1108.24C1156.52 1110.92 1150.58 1125.3 1157.79 1146.84C1163.59 1164.59 1179.38 1192.76 1205.94 1200.46C1211.06 1201.92 1216.42 1202.27 1221.68 1201.48C1228.51 1200.22 1232.75 1196.27 1227.34 1188.52C1224.51 1185.03 1221.01 1182.15 1217.04 1180.05C1213.07 1177.96 1208.71 1176.69 1204.24 1176.33C1203.97 1176.35 1203.71 1176.45 1203.51 1176.63C1196.44 1182.47 1200.29 1184.47 1196.44 1186.08C1192.59 1187.69 1180.11 1176.33 1174.21 1165.12C1169.34 1155.37 1173.04 1147.48 1180.7 1145.92C1182.06 1145.62 1183.45 1145.52 1184.84 1145.62C1195.07 1146.65 1207.4 1150.84 1218.95 1149.87C1230.51 1148.89 1240.2 1145.92 1244.44 1149.52C1247.86 1152.35 1243.76 1160.44 1253.26 1180.48C1259.11 1193.15 1265.11 1212.31 1258.14 1215.82C1256.05 1216.92 1253.79 1217.7 1251.46 1218.11C1246.15 1218.93 1241.71 1217.42 1236.84 1218.11C1235.71 1218.29 1234.61 1218.63 1233.58 1219.13C1224.06 1223.77 1214.08 1227.4 1203.8 1229.95C1196.73 1231.45 1189.47 1231.75 1182.3 1230.83C1147.8 1225.95 1125.82 1197.68 1122.36 1159.42C1119.39 1127.1 1135.13 1094.4 1174.31 1086.3C1200.68 1080.89 1226.41 1088.01 1236.84 1103.46C1246.25 1117.26 1249.9 1140.95 1229.43 1144.36L1227.97 1144.6C1205.7 1146.99 1189.81 1133.78 1197.36 1120.57V1120.57ZM1372.38 1197.34C1360.56 1204.67 1347.22 1209.19 1333.39 1210.55C1312.28 1212.45 1292.35 1206.75 1279.78 1195.49C1249.66 1168 1249.41 1104.34 1277.83 1081.09C1289.78 1071.88 1304.16 1066.37 1319.21 1065.25C1338.7 1063.44 1359.51 1068.42 1373.11 1081.33C1404.25 1111.02 1404.45 1177.84 1372.38 1197.34ZM1498.17 1207.09H1496.02C1465.22 1205.77 1456.5 1181.01 1460.64 1175.41C1461.18 1174.72 1461.88 1174.18 1462.68 1173.82C1463.47 1173.46 1464.35 1173.31 1465.22 1173.36C1466.97 1173.36 1469.02 1174.04 1470.87 1174.09C1471.82 1174.13 1472.76 1173.93 1473.61 1173.51C1474.46 1173.1 1475.2 1172.47 1475.75 1171.7C1479.69 1166.15 1452.55 1142.46 1437.78 1142.46C1436.2 1142.4 1434.63 1142.77 1433.25 1143.53C1423.5 1148.89 1433.25 1160.69 1444.46 1181.65C1452.94 1197.78 1443.39 1204.6 1430.13 1206.36C1428.64 1206.57 1427.15 1206.69 1425.65 1206.7C1420.89 1206.93 1416.2 1205.48 1412.4 1202.61C1408.6 1199.73 1405.94 1195.6 1404.88 1190.96C1396.74 1166.58 1413.8 1123.93 1420.28 1105.02C1424.57 1091.72 1423.7 1074.56 1426.72 1066.86C1428.86 1061.1 1440.95 1059.15 1454.4 1059.3C1472.19 1059.3 1492.27 1063.54 1493.73 1065.69C1496.31 1069.29 1493.73 1073.68 1493.73 1077.77C1493.73 1083.04 1501.67 1117.6 1505.23 1135.29C1509.96 1156.35 1524.24 1207.24 1498.17 1206.85V1207.09ZM1513.66 1053.55C1499.51 1053.09 1485.8 1048.48 1474.24 1040.29C1444.99 1018.31 1451.33 925.501 1451.91 913.851C1451.91 905.126 1465.51 902.202 1479.79 902.543C1494.07 902.884 1508.25 906.442 1512.69 910.244C1523.17 919.701 1515.13 949.873 1502.16 949.239H1501.38C1494.51 948.361 1501.38 933.446 1492.71 930.083C1492.29 929.896 1491.85 929.78 1491.39 929.742C1484.57 929.498 1482.18 946.802 1484.23 959.329C1489.83 991.402 1512.35 1030.01 1526.04 1030.93C1526.69 1031.01 1527.34 1031.01 1527.99 1030.93C1542.08 1027.81 1546.27 957.33 1536.96 934.177C1530.92 919.164 1529.36 911.95 1537.4 909.806C1547.15 907.222 1566.64 908.441 1577.12 909.464C1596.61 911.317 1589.06 919.213 1585.45 932.764C1581.85 946.314 1585.06 997.982 1571.85 1027.42C1563.33 1045.99 1538.08 1054.48 1513.66 1053.31V1053.55ZM1626.98 1205.09C1624.59 1216.16 1621.37 1218.98 1613.77 1218.93C1611.87 1218.93 1606.85 1218.2 1600.02 1217.28C1581.6 1214.65 1550.65 1210.84 1537.5 1209.87L1533.5 1209.58H1531.84C1520.54 1208.75 1519.32 1204.02 1520.63 1195.49C1521.95 1186.96 1527.11 1121.79 1527.21 1108.24C1527.31 1094.69 1520 1078.02 1531.79 1068.37C1537.11 1064.08 1547.1 1062.96 1556.89 1063.83C1570.34 1065 1583.55 1069.78 1585.79 1074.41C1588.81 1081.09 1582.24 1098.54 1576.44 1097.32C1573.95 1096.78 1574.78 1090.79 1570.59 1089.91C1566.4 1089.03 1563.28 1136.56 1562.06 1150.55C1560.84 1165.71 1557.53 1185.35 1567.47 1188.18C1574.54 1188.86 1593.64 1174.19 1596.17 1167.71C1598.32 1162.34 1584.53 1165.22 1586.43 1157.96C1588.33 1149.77 1611.43 1146.45 1619.52 1147.67C1622.84 1148.16 1625.92 1149.69 1628.32 1152.05C1630.71 1154.41 1632.29 1157.47 1632.82 1160.78C1633.8 1165.32 1629.27 1193.88 1626.98 1205.09ZM1762.07 1137.34C1756.42 1146.45 1745.6 1147.09 1735.37 1144.55C1727.4 1142.61 1719.85 1139.28 1713.04 1134.71C1711.62 1133.84 1710.46 1132.6 1709.69 1131.12C1708.93 1129.65 1708.58 1127.98 1708.7 1126.32C1708.81 1124.66 1709.39 1123.06 1710.35 1121.7C1711.31 1120.34 1712.63 1119.28 1714.16 1118.62C1717.33 1119.01 1715.77 1122.96 1718.26 1123.5C1718.66 1123.57 1719.07 1123.57 1719.48 1123.5C1724.35 1122.72 1721.28 1117.11 1714.6 1114.48C1713.71 1114.09 1712.78 1113.78 1711.83 1113.55C1704.32 1111.94 1691.99 1113.94 1693.06 1121.69C1694.57 1132.22 1716.5 1141.19 1726.01 1146.6C1736.62 1152.25 1744.75 1161.65 1748.81 1172.97C1752.88 1184.28 1752.58 1196.71 1747.99 1207.82C1740.43 1226.78 1717.87 1239.75 1685.65 1232.88C1684 1232.53 1682.34 1232.19 1680.78 1231.71C1644.42 1221.96 1630.68 1202.12 1637.36 1177.16C1642.23 1158.74 1654.22 1152.79 1668.06 1155.42C1672.93 1156.37 1677.64 1158.01 1682.05 1160.3C1712.02 1176.38 1697.94 1195.44 1686.92 1193.05C1685.53 1192.76 1684.22 1192.18 1683.07 1191.35C1678.49 1188.13 1687.94 1187.45 1682.78 1183.79C1682.11 1183.32 1681.34 1183.01 1680.54 1182.86C1675.32 1181.84 1670.06 1187.4 1678.15 1193.88C1682.44 1197.19 1687.45 1199.43 1692.77 1200.41C1702.22 1202.41 1712.26 1201 1714.55 1192.56C1720.5 1170.29 1683.46 1155.57 1666.35 1144.26C1642.72 1128.66 1650.37 1107.51 1662.55 1095.52C1673.81 1084.26 1692.67 1080.89 1713.63 1085.23C1719.37 1086.4 1725.01 1088.03 1730.49 1090.11C1757.2 1101.37 1770.7 1124.23 1762.07 1137.34ZM1843.27 1001.98C1834.4 1002.69 1825.47 1001.83 1816.9 999.444C1809.65 997.564 1802.68 994.762 1796.14 991.109C1790.39 987.746 1788.1 985.065 1789.51 983.359C1792.44 979.411 1805.25 983.895 1803.21 980.288C1799.6 973.903 1783.13 961.571 1771.67 958.987C1766.46 957.769 1762.17 958.5 1760.85 962.546C1756.22 976.73 1780.93 1000.52 1790.78 1003.1H1791.12C1798.62 1004.66 1804.57 1001.25 1811.3 1003.1C1811.83 1003.1 1812.32 1003.54 1812.86 1003.68C1830.01 1010.56 1802.57 1051.11 1790.19 1047.89C1789.67 1047.72 1789.16 1047.49 1788.68 1047.21C1781.47 1042.34 1783.22 1034.3 1777.96 1025.81C1774.84 1019.8 1769.65 1015.12 1763.34 1012.65C1758.47 1011.53 1755.35 1014.55 1756.81 1021.96C1759.49 1034.73 1779.96 1069.44 1793.36 1073.14C1793.7 1073.14 1794.24 1073.14 1794.58 1073.14C1805.11 1074.61 1802.38 1056.23 1808.13 1049.5C1809.21 1048.11 1810.68 1047.07 1812.36 1046.51C1814.03 1045.95 1815.83 1045.89 1817.53 1046.34C1823.9 1049.19 1828.88 1054.44 1831.38 1060.96C1837.76 1073.78 1846 1105.12 1825.33 1104.1C1816.81 1103.44 1808.38 1101.81 1800.23 1099.22C1790.49 1096.49 1780.74 1093.27 1771.77 1091.03C1769.38 1090.45 1767.19 1089.86 1764.95 1089.47C1757.25 1087.86 1748.57 1086.4 1740.92 1084.6C1731.9 1082.55 1724.06 1080.07 1720.55 1076.26C1716.16 1071.63 1717.92 1065.98 1720.55 1053.31C1722.4 1045.41 1726.54 1027.47 1730 1008.36C1734.15 986.284 1736.92 962.887 1738 956.794C1740.73 940.806 1744.28 936.858 1770.65 940.758C1782.01 942.512 1798.43 945.632 1814.51 949.873C1840.68 956.599 1866.03 966.055 1869.44 973.415C1874.9 985.504 1860.42 1000.57 1843.27 1002.17V1001.98Z" fill="#FBF3E8"/>
<path d="M1348.84 1179.75C1372.18 1175.99 1366.29 1145.62 1351.52 1122.18C1340.65 1104.73 1323.2 1084.6 1307.02 1086.26C1303.01 1086.66 1299.2 1088.21 1296.06 1090.74C1284.99 1099.9 1293.23 1126.08 1311.17 1155.71C1311.17 1155.71 1328.03 1183.06 1348.84 1179.75Z" fill="#FBF3E8"/>
<path d="M1674.06 989.647C1676.43 990.135 1678.89 990.073 1681.24 989.465C1683.59 988.856 1685.76 987.718 1687.6 986.137C1706.07 970.637 1657.48 934.518 1634.82 931.886C1633.43 931.522 1631.98 931.455 1630.56 931.691C1629.14 931.926 1627.79 932.457 1626.59 933.251C1616.55 942.707 1650.52 985.552 1674.06 989.647Z" fill="#FBF3E8"/>
</g>
<defs>
<clipPath id="clip0_1232_510">
<rect width="916" height="382" fill="white" transform="translate(982 879)"/>
</clipPath>
</defs>
</svg>
