<?xml version="1.0" encoding="utf-8"?>
<!-- Generator: Adobe Illustrator 26.2.1, SVG Export Plug-In . SVG Version: 6.00 Build 0)  -->
<svg version="1.1" id="Laag_1" xmlns="http://www.w3.org/2000/svg" xmlns:xlink="http://www.w3.org/1999/xlink" x="0px" y="0px"
	 viewBox="0 0 2880 2140" style="enable-background:new 0 0 2880 2140;" xml:space="preserve">
<style type="text/css">
	.st0{fill-rule:evenodd;clip-rule:evenodd;fill:#FFFFFF;}
</style>
<g id="Symbols">
	<g id="Logo_x2F_UEFA.com">
		<path id="Combined-Shape" class="st0" d="M1126,1123.6c8.9,8.9,22.3,14.5,36.9,14.5s29.1-4.5,36.9-14.5
			c11.2-11.2,14.5-22.3,14.5-44.7V960.5h42.5V1089c0,26.8-7.8,48-24.6,63.7c-17.9,17.9-41.3,26.8-69.3,26.8
			c-29.1,0-51.4-8.9-69.3-26.8c-16.8-15.6-24.6-35.8-24.6-63.7V960.5h42.5v118.4C1111.5,1101.3,1114.9,1112.5,1126,1123.6z
			 M1443.4,1000.7h-107.3v49.2h98.3v39.1h-98.3v21.2c0,22.3,7.8,27.9,27.9,27.9h79.3v40.2h-81.6c-38,0-68.2-16.8-68.2-63.7V976.1
			c0-10.1,6.7-15.6,15.6-15.6h134.1V1000.7z M1516,1089v89.4h-26.8c-8.9,0-15.6-5.6-15.6-15.6v-138.6c0-46.9,30.2-63.7,68.2-63.7
			h81.6v40.2h-79.3c-20.1,0-27.9,5.6-27.9,27.9v21.2h98.3v39.1H1516z M1712.6,960.5c12.3,0,16.8,6.7,19,14.5l79.3,203.4h-45.8
			l-14.5-40.2h-52.5l14.5-40.2h22.3l-27.9-71.5l-53.6,152H1611l72.6-203.4c2.2-7.8,6.7-14.5,19-14.5H1712.6z"/>
	</g>
</g>
</svg>
