<svg width="71" height="71" viewBox="0 0 71 71" fill="none" xmlns="http://www.w3.org/2000/svg">
<path d="M35.5 0C15.8922 0 0 15.8922 0 35.5C0 55.1078 15.8922 71 35.5 71C55.1078 71 71 55.1078 71 35.5C71 15.8922 55.1078 0 35.5 0ZM22.2352 16.4247H40.4888L37.6876 20.8578H19.4457L22.2352 16.4247ZM18.5313 48.4407C18.5313 49.0078 18.3345 49.494 17.941 49.8875C17.5474 50.2811 17.0613 50.4894 16.5057 50.4894H14.0981C13.531 50.4894 13.0448 50.2926 12.6629 49.9107C12.2809 49.5287 12.0841 49.0541 12.0841 48.4754V47.5262H13.5657L13.7856 48.4059C13.8898 48.7648 14.1329 48.9615 14.5496 48.9615H16.1816C16.3784 48.9615 16.552 48.8921 16.6793 48.73C16.7951 48.5796 16.8645 48.3944 16.8645 48.1744V47.1211C16.8645 46.6118 16.633 46.3456 16.1816 46.3456H14.1329C13.5773 46.3456 13.0911 46.1488 12.686 45.7553C12.2925 45.3502 12.0957 44.8756 12.0957 44.3084V42.9195C12.0957 42.3639 12.2925 41.8893 12.686 41.4958C13.0911 41.1022 13.5773 40.8939 14.1329 40.8939H16.5057C17.0613 40.8939 17.5359 41.0906 17.9294 41.461C18.3114 41.843 18.5082 42.3176 18.5082 42.8847V43.7413H17.0381L16.8182 42.9658C16.7025 42.5954 16.4478 42.4102 16.0659 42.4102H14.457C14.2486 42.4102 14.0866 42.4796 13.9592 42.6301C13.8319 42.7806 13.774 42.9658 13.774 43.1973V44.0075C13.774 44.5052 14.0055 44.7599 14.457 44.7599H16.5057C17.0613 44.7599 17.5359 44.9566 17.941 45.3618C18.3461 45.7669 18.5429 46.2414 18.5429 46.797V48.4175L18.5313 48.4407ZM26.8999 44.9335C26.8999 45.5007 26.7031 45.9752 26.3096 46.3688C25.9045 46.7623 25.4183 46.9707 24.8512 46.9707H22.2121V50.4894H20.5222V40.9054H24.8627C25.4299 40.9054 25.9045 41.1022 26.3212 41.5073C26.7147 41.9009 26.9115 42.3754 26.9115 42.931V44.9451L26.8999 44.9335ZM35.0254 48.4291C35.0254 49.0078 34.8287 49.494 34.4235 49.8875C34.0184 50.2811 33.5554 50.4894 32.9767 50.4894H30.6849C30.1177 50.4894 29.6316 50.2926 29.238 49.8875C28.8445 49.494 28.6361 49.0078 28.6361 48.4291V42.9195C28.6361 42.3755 28.8445 41.8893 29.238 41.4958C29.6316 41.1022 30.1177 40.8939 30.6849 40.8939H32.9767C33.5439 40.8939 34.0184 41.0906 34.4235 41.4842C34.8287 41.8662 35.0254 42.3523 35.0254 42.9079V48.4175V48.4291ZM35.4421 38.6136H12.3388L17.9641 29.7357H13.8435L16.6562 25.3026H33.8448L31.0321 29.7357H23.3233L20.4759 34.1805H32.8841L44.2274 16.2742L58.3487 38.6136H53.0243L50.2232 34.1805H41.8777L44.6904 29.7357H47.4221L44.239 24.6891L35.4768 38.6136H35.4421ZM41.9472 50.4894L40.3846 46.7392H38.7757V50.4894H37.0742V40.9054H41.3106C41.8777 40.9054 42.3639 41.1022 42.7574 41.5073C43.151 41.9009 43.3593 42.3754 43.3593 42.931V44.5978C43.3593 45.0377 43.2436 45.4312 43.0005 45.7784C42.7458 46.1257 42.4333 46.3688 42.0629 46.5308L43.7413 50.4894H41.9356H41.9472ZM51.0218 42.4449H48.5564V50.4894H46.8549V42.4449H44.4126V40.8939H51.0103V42.4449H51.0218ZM58.7075 48.4407C58.7075 49.0078 58.5108 49.494 58.1172 49.8875C57.7121 50.2811 57.2375 50.4894 56.6704 50.4894H54.2744C53.6956 50.4894 53.2326 50.2926 52.8391 49.9107C52.4571 49.5287 52.2604 49.0541 52.2604 48.4754V47.5262H53.7419L53.9618 48.4059C54.066 48.7648 54.3091 48.9615 54.7258 48.9615H56.3463C56.5546 48.9615 56.7167 48.8921 56.844 48.73C56.9597 48.5796 57.0292 48.3944 57.0292 48.1744V47.1211C57.0292 46.6118 56.8093 46.3456 56.3463 46.3456H54.3091C53.7419 46.3456 53.2558 46.1488 52.8622 45.7553C52.4687 45.3502 52.2604 44.8756 52.2604 44.3084V42.9195C52.2604 42.3639 52.4687 41.8893 52.8622 41.4958C53.2558 41.1022 53.7419 40.8939 54.3091 40.8939H56.6819C57.2491 40.8939 57.7237 41.0906 58.1172 41.461C58.4992 41.843 58.696 42.3176 58.696 42.8847V43.7413H57.226L57.006 42.9658C56.8903 42.5954 56.6356 42.4102 56.2537 42.4102H54.6448C54.4364 42.4102 54.2628 42.4796 54.147 42.6301C54.0197 42.7806 53.9618 42.9658 53.9618 43.1973V44.0075C53.9618 44.5052 54.1933 44.7599 54.6448 44.7599H56.6819C57.2375 44.7599 57.7237 44.9566 58.1172 45.3618C58.5339 45.7669 58.7307 46.2414 58.7307 46.797V48.4175L58.7075 48.4407ZM59.7377 41.3684H59.3789V42.1324H59.1937V41.3684H58.8349V41.2064H59.7377V41.3684ZM60.8142 42.1324V41.5536C60.8142 41.5536 60.8142 41.4958 60.8142 41.4495C60.8026 41.4842 60.791 41.5189 60.7678 41.5536L60.4785 42.0051H60.4553L60.1544 41.5421C60.1544 41.5421 60.1197 41.4842 60.0965 41.4495C60.0965 41.4842 60.1197 41.5189 60.1197 41.5536V42.1324H59.9692V41.2064H60.1197L60.4785 41.762L60.8489 41.2064H60.9878V42.1324H60.8257H60.8142Z" fill="white"></path>
<path d="M41.0095 42.4448H38.7871V45.1881H41.0095C41.2063 45.1881 41.3683 45.1186 41.4956 44.9797C41.6229 44.8292 41.6808 44.644 41.6808 44.4125V43.2319C41.6808 43.0004 41.6229 42.8152 41.4956 42.6647C41.3683 42.5143 41.2063 42.4448 41.0095 42.4448Z" fill="white"></path>
<path d="M24.5279 42.4448H22.2129V45.4196H24.5279C24.7246 45.4196 24.8867 45.3385 25.014 45.1996C25.1413 45.0492 25.2108 44.864 25.2108 44.6325V43.2319C25.2108 43.0004 25.1413 42.8152 25.014 42.6647C24.8867 42.5143 24.7246 42.4448 24.5279 42.4448Z" fill="white"></path>
<path d="M32.653 42.4448H31.0325C30.8242 42.4448 30.6621 42.5143 30.5348 42.6647C30.4075 42.8152 30.3496 43.0004 30.3496 43.2319V48.1512C30.3496 48.3711 30.4075 48.5563 30.5348 48.7068C30.6621 48.8573 30.8242 48.9383 31.0325 48.9383H32.653C32.8498 48.9383 33.0118 48.8573 33.1391 48.7068C33.2665 48.5563 33.3359 48.3711 33.3359 48.1512V43.2319C33.3359 43.0004 33.278 42.8152 33.1391 42.6647C33.0118 42.5143 32.8498 42.4448 32.653 42.4448Z" fill="white"></path>
</svg>