<svg width="74" height="80" viewBox="0 0 74 80" fill="none" xmlns="http://www.w3.org/2000/svg">
<g clip-path="url(#clip0_847_1090)">
<path d="M55.3819 30.3286C55.3819 20.4912 47.1517 12.5154 37.0005 12.5154C26.8493 12.5154 18.6191 20.4912 18.6191 30.3286C18.6191 40.166 26.8493 48.1418 37.0005 48.1418C41.0072 48.1418 44.702 46.8863 47.7211 44.7789L42.5758 39.7926C40.9317 40.7046 39.0319 41.2339 37.0005 41.2339C30.7863 41.2339 25.7494 36.3527 25.7494 30.3305C25.7494 24.3083 30.7863 19.4271 37.0005 19.4271C42.1807 19.4271 46.534 22.8257 47.8411 27.4442H29.8645L35.6876 33.0873H55.1379L55.1321 33.0817H55.1399C55.2851 32.179 55.3819 31.2651 55.3819 30.3286Z" fill="white"></path>
<path d="M51.7825 48.6823C47.7023 51.7732 42.5802 53.631 37.0011 53.631C23.7205 53.631 12.9554 43.1987 12.9554 30.3286C12.9554 24.922 14.8725 19.9563 18.062 16.0022L12.8915 10.9934C8.40458 16.2424 5.70508 22.9796 5.70508 30.3286C5.70508 47.0778 19.7158 60.6572 37.0011 60.6572C44.5845 60.6572 51.5366 58.0412 56.953 53.693L51.7825 48.6823Z" fill="white"></path>
<path d="M22.1959 11.99C26.28 8.88972 31.4098 7.0262 36.9986 7.0262C50.2792 7.0262 61.0443 17.4585 61.0443 30.3286C61.0443 35.7447 59.1214 40.7178 55.9222 44.6738L61.0889 49.6807C65.5854 44.4298 68.2927 37.6851 68.2927 30.3268C68.2946 13.5776 54.2839 0 37.0006 0C29.4075 0 22.4496 2.62357 17.0293 6.98116L22.1959 11.99Z" fill="white"></path>
<path d="M11.9736 71.8553H9.58398V79.833H11.9736V75.7269C11.9736 74.1711 13.5713 73.9703 14.861 73.9197V71.7202C13.641 71.7202 12.7134 72.0862 11.9736 72.7524V71.8553Z" fill="white"></path>
<path d="M31.0033 72.3207C30.3681 71.921 29.5935 71.6883 28.6659 71.6883C26.3963 71.6883 24.5586 73.5199 24.5586 75.8357C24.5586 78.1834 26.3983 80 28.6659 80C29.5935 80 30.3681 79.7673 31.0033 79.3675V79.8348H33.393V68.01H31.0033V72.3207ZM31.0033 77.1174C30.4708 77.8174 29.7659 78.0501 29.061 78.0501C27.8061 78.0501 26.9289 77.018 26.9289 75.8357C26.9289 74.6703 27.8061 73.6531 29.061 73.6531C29.7659 73.6531 30.4708 73.8858 31.0033 74.5689V77.1174Z" fill="white"></path>
<path d="M37.6963 71.8552H35.3066V79.8329H37.6963V71.8552Z" fill="white"></path>
<path d="M43.2259 76.8302L41.1229 71.8552H38.5957L42.1589 79.8329H44.291L47.8542 71.8552H45.327L43.2259 76.8302Z" fill="white"></path>
<path d="M51.2549 71.8552H48.8652V79.8329H51.2549V71.8552Z" fill="white"></path>
<path d="M57.8214 75.0362L56.3265 74.8035C55.5693 74.6702 55.3466 74.3531 55.3466 74.0547C55.3466 73.6887 55.7416 73.3716 56.5666 73.3716C57.3567 73.3716 58.0267 73.6549 58.079 74.3718L60.2614 74.3549C60.0891 72.1067 57.9764 71.6394 56.5666 71.6394C54.4519 71.6394 53.0092 72.6228 53.0092 74.2705C53.0092 75.753 54.1789 76.4193 55.4318 76.6351L57.1843 76.9185C57.7343 77.0179 58.0093 77.2675 58.0093 77.5847C58.0093 78.0013 57.4419 78.2678 56.6169 78.2678C55.6719 78.2678 55.0348 77.9337 54.8992 77.0855L52.7168 77.0686C52.8891 79.3337 54.694 80.0825 56.6014 80.0825C58.6987 80.0825 60.3137 79.1836 60.3137 77.3839C60.3118 75.8863 59.1615 75.2689 57.8214 75.0362Z" fill="white"></path>
<path d="M64.2197 71.8552H61.8301V79.8329H64.2197V71.8552Z" fill="white"></path>
<path d="M4.38233 71.6882C1.75255 71.6882 0 73.4542 0 75.8525C0 78.234 1.76997 80.0168 4.41719 80.0168C6.35951 80.0168 7.90679 79.0335 8.35219 77.5021H5.85989C5.60234 77.9018 5.13757 78.1026 4.46754 78.1026C3.56319 78.1026 2.71306 77.7067 2.4129 76.6876H8.40447C8.45676 76.3536 8.45676 76.0214 8.45676 75.6874C8.45676 73.304 6.70227 71.6882 4.38233 71.6882ZM2.38385 75.07C2.64915 73.9778 3.5109 73.5874 4.31455 73.5874C5.31186 73.5874 5.94703 74.1373 6.08453 75.07H2.38385Z" fill="white"></path>
<path d="M19.5191 71.6882C16.8893 71.6882 15.1367 73.4542 15.1367 75.8525C15.1367 78.234 16.9067 80.0168 19.5539 80.0168C21.4962 80.0168 23.0435 79.0335 23.4889 77.5021H20.9966C20.7391 77.9018 20.2743 78.1026 19.6043 78.1026C18.6999 78.1026 17.8498 77.7067 17.5496 76.6876H23.5393C23.5915 76.3536 23.5915 76.0214 23.5915 75.6874C23.5915 73.304 21.839 71.6882 19.5191 71.6882ZM17.5206 75.07C17.7878 73.9778 18.6476 73.5874 19.4513 73.5874C20.4486 73.5874 21.0838 74.1373 21.2212 75.07H17.5206Z" fill="white"></path>
<path d="M73.9997 75.6855C73.9997 73.304 72.2472 71.6882 69.9273 71.6882C67.2975 71.6882 65.5449 73.4542 65.5449 75.8525C65.5449 78.234 67.3149 80.0168 69.9621 80.0168C71.9044 80.0168 73.4517 79.0335 73.8971 77.5021H71.4048C71.1473 77.9018 70.6825 78.1026 70.0125 78.1026C69.1081 78.1026 68.258 77.7067 67.9578 76.6876H73.9475C73.9997 76.3517 73.9997 76.0196 73.9997 75.6855ZM67.9288 75.07C68.1941 73.9778 69.0558 73.5874 69.8595 73.5874C70.8568 73.5874 71.492 74.1373 71.6294 75.07H67.9288Z" fill="white"></path>
</g>
<defs>
<clipPath id="clip0_847_1090">
<rect width="74" height="80" fill="white"></rect>
</clipPath>
</defs>
</svg>