<svg width="100" height="100" viewBox="0 0 100 100" fill="none" xmlns="http://www.w3.org/2000/svg">
<path fill-rule="evenodd" clip-rule="evenodd" d="M47.8125 1.47021L46.8501 5.07996L49.898 7.32633L53.1866 5.07996L51.9835 1.47021H47.8125V1.47021ZM46.3687 13.1819C46.3687 13.1819 54.2299 11.5773 49.9784 23.3689C49.9784 23.3689 54.3103 20.6416 54.3103 14.7061C54.3103 14.7061 54.7113 11.2567 51.9036 10.134C51.9036 10.134 47.0908 8.04797 46.3687 13.1819ZM44.9249 14.0644C44.9249 14.0644 42.4782 10.3343 39.31 13.5025C39.31 13.5025 37.8662 15.187 39.31 18.3154C39.31 18.3154 40.7538 20.4808 44.363 23.3689C44.363 23.3689 40.7538 17.2726 44.9249 14.0644V14.0644ZM37.5036 17.0671C37.5036 17.0671 36.0359 14.8291 34.1351 16.7304C34.1351 16.7304 33.2687 17.7411 34.1351 19.618C34.1351 19.618 35.0009 20.9176 37.1669 22.6499C37.1669 22.6499 35.0009 18.9924 37.5036 17.0671V17.0671ZM55.987 14.0042C55.987 14.0042 58.4331 10.2746 61.6014 13.4429C61.6014 13.4429 63.0452 15.1274 61.6014 18.2552C61.6014 18.2552 60.1576 20.4211 56.5484 23.3087C56.5484 23.3087 60.1576 17.2124 55.987 14.0042V14.0042ZM63.3352 16.5058C63.3352 16.5058 64.8034 14.2677 66.7042 16.1691C66.7042 16.1691 67.5706 17.1797 66.7042 19.0567C66.7042 19.0567 65.8378 20.3558 63.6724 22.0885C63.6724 22.0885 65.8378 18.4305 63.3352 16.5058ZM38.5079 36.872C38.5079 36.872 35.7277 29.5991 44.7111 26.2835C44.7111 26.2835 44.6043 25.1068 43.535 25.1068C43.535 25.1068 38.8825 24.9465 38.1868 25.6417C38.1868 25.6417 34.1231 27.2458 35.0855 31.4169C35.0855 31.4174 34.9781 33.3427 38.5079 36.872Z" fill="white"></path>
<path fill-rule="evenodd" clip-rule="evenodd" d="M42.5723 35.2674C42.5723 35.2674 46.209 27.9945 52.8402 30.6683C52.8402 30.6683 47.8126 34.8399 48.6686 38.6899C48.6686 38.6899 53.0539 33.6633 56.6896 34.4114C56.6896 34.4114 61.9304 37.1921 66.8506 36.5509C66.8506 36.5509 74.5516 36.5509 75.9414 29.9197C75.9414 29.9197 72.7332 33.0216 61.1823 30.134C61.1823 30.134 66.2084 27.995 67.5458 23.7705C67.5458 23.7705 63.7493 27.0321 52.8402 25.7487C52.8407 25.7487 42.5723 22.3267 42.5723 35.2674V35.2674Z" fill="white"></path>
<path fill-rule="evenodd" clip-rule="evenodd" d="M53.4805 43.9307C53.4805 43.9307 58.507 39.8665 64.2817 43.9307C64.2817 43.9307 71.0197 47.6738 74.6565 42.9679C74.6565 42.9679 77.7583 38.0482 81.1808 38.0482C81.1808 38.0482 78.2932 33.4491 72.7312 38.0482C72.7312 38.0482 70.806 42.2193 64.2817 38.9037C57.7584 35.5886 55.7258 39.2248 55.4057 39.5454L53.4805 43.9307V43.9307Z" fill="white"></path>
<path fill-rule="evenodd" clip-rule="evenodd" d="M54.6582 51.3103C54.6582 51.3103 61.1825 47.6736 64.7119 50.1327C64.7119 50.1327 71.8774 55.1603 74.7656 54.3043C74.7656 54.3043 81.61 55.4809 84.6044 47.5662C84.6044 47.5662 78.616 51.7378 70.4876 48.208C70.4876 48.2085 59.5779 41.4709 54.6582 51.3103V51.3103Z" fill="white"></path>
<path fill-rule="evenodd" clip-rule="evenodd" d="M55.5119 55.5883C55.5119 55.5883 61.7151 53.8768 66.6353 61.1492C66.6353 61.1492 72.3036 69.1713 78.6131 61.1492C78.6131 61.1492 80.2183 59.0102 83.9614 57.6199C83.9614 57.6199 78.5068 54.1969 74.978 58.5822C74.978 58.5822 73.4802 61.0423 68.7748 57.4056C68.7743 57.4061 62.25 48.8502 55.5119 55.5883V55.5883ZM54.0142 60.0805C54.0142 60.0805 60.966 61.7909 65.1376 70.8817C65.1376 70.8817 67.2765 76.8712 76.1536 74.091C76.1536 74.091 71.4481 73.5561 68.56 68.7438C68.5605 68.7438 63.7467 57.5135 54.0142 60.0805V60.0805ZM52.3037 63.0744C52.3037 63.0744 56.0468 65.8557 57.8646 73.9841C57.8646 73.9841 59.255 80.7211 68.132 79.545C68.132 79.545 62.6775 78.5832 60.5385 70.9891C60.5385 70.9891 59.6835 65.2134 52.3037 63.0744V63.0744ZM49.8441 64.251C49.8441 64.251 46.2074 68.1015 51.3414 75.3745C51.3414 75.3745 53.6941 78.2621 54.3353 84.6795C54.3353 84.6795 57.5445 79.6529 53.5867 73.7698C53.5867 73.7693 49.3093 68.8501 49.8441 64.251ZM42.9987 64.7859C42.9987 64.7859 36.9024 66.2837 37.8647 71.6314C37.8647 71.6314 39.7895 75.1607 37.8647 79.9735C37.8647 79.9735 41.8216 77.2997 40.0037 72.0589C40.0042 72.0589 38.079 68.8501 42.9987 64.7859V64.7859Z" fill="white"></path>
<path fill-rule="evenodd" clip-rule="evenodd" d="M41.5038 36.9788C41.5038 36.9788 40.862 40.8292 35.0863 38.9035L32.9469 41.6842C32.9469 41.6842 37.92 43.7028 37.92 44.7321C37.92 44.7321 38.4683 46.3497 36.4228 46.2293C36.4228 46.2293 34.4975 46.51 34.8187 44.6247C34.8187 44.6247 28.161 44.7451 25.2734 47.1917C25.2734 47.1917 26.5969 47.7929 26.1559 50.5607C26.1559 50.5607 26.2524 52.8698 28.3058 53.9614C28.3058 53.9614 29.14 54.6674 29.3968 53.7689C29.3968 53.7689 30.4878 51.01 38.8943 53.7689C38.8943 53.7689 43.0648 56.2077 42.5517 60.4431C42.5517 60.4431 37.0972 59.5446 34.787 62.5608C34.787 62.5608 34.2734 61.6623 33.5679 61.6623C33.5679 61.6623 31.9746 64.4415 35.3006 70.7743C35.3006 70.7743 35.4287 64.2288 43.5784 61.9824C43.5784 61.9824 43.001 54.6036 52.691 56.0791C52.691 56.0791 51.2793 51.5236 45.6318 51.5236C45.6318 51.5236 51.3431 51.7799 53.0111 44.4006C53.0111 44.4006 48.5194 47.545 42.7442 46.069C42.7442 46.069 48.0706 44.3362 48.0706 39.5878C48.0706 39.5878 44.8619 43.6945 39.9853 42.0261C39.9848 42.0266 42.4443 40.5937 41.5038 36.9788V36.9788Z" fill="white"></path>
<path fill-rule="evenodd" clip-rule="evenodd" d="M37.1171 58.4764C37.1171 58.4764 36.3684 53.9837 23.8552 57.4066C23.8552 57.4066 17.7589 58.797 17.7589 54.519C17.7589 54.519 14.3365 56.658 15.7268 59.5456C15.7268 59.5456 17.9192 64.0373 25.3525 60.936C25.353 60.9354 32.2145 56.5724 37.1171 58.4764V58.4764ZM46.8765 65.1869C46.8765 65.1869 43.561 69.2511 46.4491 75.1067C46.4491 75.1067 49.2568 80.401 44.6042 83.77C44.6042 83.77 45.8877 78.8768 44.3635 75.9892C44.363 75.9897 40.5665 67.9412 46.8765 65.1869V65.1869ZM30.0921 98.5296H27.3975V85.6288H30.0921V90.8754L35.0154 85.6288H38.5012L33.2365 90.9106L38.8068 98.5296H35.3392L31.3502 92.8696L30.0921 94.1635V98.5296V98.5296ZM48.491 85.6288H51.0066V98.5296H48.312L43.0468 89.3299H43.011V98.5296H40.4954V85.6288H43.3342L48.4552 94.6122H48.491V85.6288V85.6288ZM61.5173 85.6288H64.3209L59.9366 98.5296H57.367L53.019 85.6288H55.9118L58.679 95.4029H58.7148L61.5173 85.6288ZM69.0642 92.8514H72.496C73.4656 92.8514 74.4362 93.2831 74.4362 94.4151C74.4362 95.7261 73.6814 96.3019 72.3704 96.3019H69.0642V92.8514V92.8514ZM66.4764 98.5296H71.9388C74.5805 98.5296 75.2803 98.0798 76.017 97.3613C76.369 97.0136 76.6488 96.5996 76.84 96.1433C77.0313 95.687 77.1303 95.1973 77.1314 94.7025C77.1314 93.4268 76.7179 92.1682 75.1371 91.5757C75.6762 91.306 76.7179 90.7856 76.7179 88.9341C76.7179 87.6049 75.9091 85.6288 72.7471 85.6288H66.4759V98.5296H66.4764V98.5296ZM69.0642 87.8571H72.1546C73.3764 87.8571 74.1307 88.1803 74.1307 89.2401C74.1307 90.2648 73.2866 90.6777 72.2267 90.6777H69.0642V87.8571V87.8571Z" fill="white"></path>
</svg>