<svg height="400" viewBox="0 0 420 400" width="420" xmlns="http://www.w3.org/2000/svg"><path d="m108.01 336.711771h-14.23v-.14l3.36-3.83 13.09-34.64-2.49-3.83v-.13h14.43l13.02 38.6 3.49 3.83v.14h-18.19v-.14l3.49-3.83-1.95-6.65h-15.04l-2.29 6.65 3.29 3.83v.14zm1.21-16.99h10.94l-5.03-16.92zm294.77-9.2c-7.72-2.15-10.07-3.09-10.07-6.65 0-4.1 5.31-4.9 8.66-4.9 2.82 0 5.44.33 7.79 1.07l6.44 6.98h.13l-.54-12.02c-4.03-1.54-8.26-2.35-13.09-2.35-10.14 0-19.88 3.49-19.88 13.57 0 6.51 4.5 10.4 14.24 13.09 7.52 2.08 11.21 3.42 11.21 7.25 0 4.43-5.64 5.37-9.4 5.37-3.15 0-5.97-.47-8.39-1.21l-6.51-8.06h-.14l.47 12.75c4.43 2.02 9.8 2.75 14.84 2.75 10.88 0 20.01-4.56 20.01-13.76 0-8.66-5.97-11.14-15.78-13.9m-43.29-16.25 4.1 3.83v22.56l-17.26-26.52h-15.51v.13l3.16 3.83v34.64l-3.16 3.83v.14h14.17v-.14l-4.16-3.83v-28.2l21.55 32.16h8.06v-38.61l3.15-3.83v-.13h-14.1v.13zm2.79 67.2 2.08 3.25h-1.24l-1.94-3.2h-1.3v3.2h-1.11v-7.38h2.81c1.74 0 2.6.64 2.6 2.1 0 1.32-.83 1.89-1.91 2.03m-1.05-.9c.94 0 1.8-.05 1.8-1.19 0-.92-.83-1.08-1.62-1.08h-1.53v2.28h1.35zm6.49.44c0 3.71-2.99 6.42-6.48 6.42s-6.5-2.71-6.5-6.42 2.99-6.38 6.5-6.38 6.48 2.71 6.48 6.38m-1.29 0c0-3.02-2.29-5.31-5.19-5.31s-5.22 2.29-5.22 5.31 2.29 5.36 5.22 5.36 5.19-2.27 5.19-5.36m-81.09-5.23 3.49 3.83v24.24c0 6.98-3.42 8.73-9 8.73s-9.06-1.61-9.06-8.73v-24.24l3.49-3.83v-.14h-17.53v.14l3.16 3.83v24.24c0 11.61 5.91 15.84 18.53 15.84 11.48 0 17.32-3.96 17.32-15.51v-24.57l3.09-3.83v-.14h-13.49zm14.2-17.61c-13.29 0-21.89-10.94-21.89-23.36s9.87-22.16 22.22-22.16c13.63 0 22.36 10.68 22.36 22.9 0 13.96-10.54 22.62-22.7 22.62m11.28-19.67c0-7.38-2.75-19.13-12.15-19.13-7.52 0-9.67 7.52-9.67 12.62 0 7.45 3.09 19.47 12.15 19.47 6.51 0 9.67-6.18 9.67-12.96m-101.44 14.24v-34.64l-3.16-3.83v-.13h20.14c12.22 0 17.79 5.57 17.79 14.03s-6.65 14.23-15.71 14.23c-2.95 0-5.98-.2-8.19-.74v11.08l4.43 3.83v.14h-18.46v-.14zm10.88-16.72c1.34.4 2.89.6 4.5.6 5.91 0 8.46-3.22 8.46-7.99 0-5.64-3.29-8.32-9.4-8.32h-3.56zm11.11 62.25 4.23 3.83v7.99c-1.34 1.54-3.69 2.82-6.85 2.82-7.52 0-11.48-9.2-11.48-16.92 0-8.39 4.23-15.44 12.96-15.44 2.42 0 4.97.2 7.05.94l6.71 7.25h.13l-.4-11.68c-3.89-2.02-8.59-2.88-13.36-2.88-14.3 0-24.44 8.8-24.44 23.3 0 12.15 7.79 22.22 19.94 22.22 5.31 0 10.14-1.21 14.64-4.5l5.3 4.5h.14v-17.59l3.36-3.83v-.13h-17.92v.13zm37.56-41.71-3.09-3.83v-34.64l3.09-3.83v-.13h-17.12v.13l3.16 3.83v34.64l-3.16 3.83v.14h17.12zm-244.48-5.5c-8.73 0-14.3-8.86-14.3-16.52 0-9.4 5.1-15.51 12.42-15.51 1.95 0 3.83.2 5.51.67l6.58 8.13h.14l-.47-13.43c-1.88-.74-5.97-1.75-11.01-1.75-15.57 0-24.5 10.61-24.5 22.83s8.59 22.69 23.36 22.69c3.96 0 9.8-1.34 13.83-4.36l.6-7.05h-.13c-3.42 2.68-8.33 4.3-12.02 4.3m174.42 63.19 3.49 3.83v.13h-18.19v-.13l3.49-3.83-1.95-6.65h-15.04l-2.29 6.65 3.29 3.83v.13h-14.23v-.13l3.36-3.83 13.09-34.64-2.49-3.83v-.14h14.44l13.02 38.61zm-15.04-13.03-5.03-16.92-5.91 16.92zm154.08 10.81h-16.79v-12.89h10l4.09 3.49h.14v-13.16h-.14l-4.09 3.49h-10v-11.21h16.18l4.7 5.04h.13l-.54-11.15h-34.51v.14l3.16 3.83v34.64l-3.16 3.83v.13h35.99l.87-12.82h-.14l-5.91 6.65zm-267.41-55.47v.14h17.12v-.14l-3.16-3.83v-34.64l3.16-3.83v-.13h-17.12v.13l3.09 3.83v12.89h-15.24v-12.89l3.09-3.83v-.13h-17.12v.13l3.16 3.83v34.64l-3.16 3.83v.14h17.12v-.14l-3.09-3.83v-14.97h15.24v14.97zm32.52 55.4h-14.57v-32.36l3.96-3.83v-.14h-18v.14l3.16 3.83v34.64l-3.16 3.76v.2h33.77l1.61-13.36h-.14l-6.65 7.11zm49.98-85.61 11.89 30.35h6.65l11.01-30.68 1.88 26.72-4.16 3.83v.14h18.06v-.14l-3.49-3.83-2.55-34.64 2.75-3.83v-.13h-15.04l-10.21 28.4-11.01-28.4h-15.24v.13l3.09 3.83-1.81 34.64-3.69 3.83v.14h14.83v-.14l-3.69-3.83.74-26.39zm-6.34 85.68h-16.78v-12.89h10l4.09 3.49h.14v-13.16h-.14l-4.09 3.49h-10v-11.21h16.18l4.7 5.04h.13l-.54-11.15h-34.51v.14l3.16 3.83v34.64l-3.16 3.83v.13h35.99l.87-12.82h-.14l-5.91 6.65zm107.11-123.14 1.1-3.79-4.72-3.53 3.8-2.72 2.2 1.65 2.5-8.43-14.51 9.38-5.95-3.37 22.76-14.73c.88-.57 2.08-1.07 3.6.1l.97.75c1.53 1.18 1.32 2.53 1.02 3.45l-7.55 26-5.21-4.77zm25.82-20.73 3.38-4.18c-1.68-1.68-3.43-3.31-5.25-4.88-18.93-16.34-43.45-25.34-69.04-25.34s-50.11 9-69.04 25.34c-1.82 1.57-3.57 3.2-5.25 4.88l3.38 4.18c1.71-1.73 3.49-3.4 5.36-5.02 17.96-15.5 41.24-24.04 65.55-24.04s47.59 8.54 65.55 24.04c1.87 1.61 3.65 3.29 5.36 5.02m-49.72-14.18 9.58 2.48 1.51-5.84-9.85-2.55c-5.4-1.4-9.1.62-10.41 5.69l-4.02 15.53c-.19.72-.11 1.4.22 1.96s.89.96 1.6 1.14l3.66.95 2.59-10.04 11.09 2.87 1.5-5.78-11.09-2.87.43-1.66c.57-2.2 1.23-2.39 3.19-1.88m-31.09-8.57-15.99 3.25c-.73.15-1.31.51-1.67 1.06-.36.54-.47 1.22-.33 1.95l3.19 15.7c.52 2.55 1.66 4.39 3.4 5.47 1.15.71 2.53 1.07 4.12 1.060203.81 0 1.67-.090203 2.59-.280203l9.99-2.03-1.2-5.93-9.72 1.97c-1.99.4-2.64.18-3.09-2.05l-.34-1.69 11.25-2.28-1.19-5.86-11.25 2.28-.85-4.2 12.29-2.5-1.2-5.93zm-33.76 35.46c-1.23 1-2.66 1.49-3.92 1.34-1.6-.18-2.57-.84-4.16-2.8l-9.15-11.26-4.94 4.01 9.97 12.27c2.12 2.6 4.53 3.99 7.38 4.25.34.03.67.050303 1 .050303 2.76.019697 5.32-.950303 7.81-2.960303 2.77-2.26 4.29-4.89 4.64-8.02.32-2.84-.54-5.49-2.66-8.1l-9.97-12.26-4.94 4.01 9.15 11.26c1.59 1.96 2.04 3.04 1.89 4.65-.11 1.26-.88 2.56-2.12 3.56m43.67-2.62c-18.67 0-35.6 8.35-45.94 20.7l3.28 4.05c9.38-11.68 25.34-19.71 42.66-19.71s33.28 8.03 42.66 19.71l3.28-4.05c-10.33-12.35-27.27-20.7-45.94-20.7m86.17-144.27c-.25.11-.54-.06-.55-.34-.59-11.55-1.65-22.7700001-2.2-26.8800001.04-9.97-1.61-20.32-3.25-27.96-.06-.28.18-.52.46-.47 9.42 1.93 12.44 5.46 12.44 5.46-4.98-11.2-12.17-19.64-19.98-26.02-6.68-14-14.36-20.48-14.36-20.48.62 3.1.19 6.6-.91 10.22-.07.23-.33.34-.55.23-12.79-6.27-26.01-9.13-31.12-9.85-7.64-3.72-15.98-6.18-22.76-8.04000004-.18-.05-.23-.28-.08-.41 9.02-7.43 17.3-9.34 17.3-9.34-14.66-.59-27.28 2.07-37.83 6.13-15.76-1.27-25.81 1.48-25.81 1.48s4.35 5.22000004 6.05 8.12000004c.2.35.1.8-.24 1.03-9.91 6.89-17.03 14.45-19.83 17.6-3.12.42-8.54 1.17-13.26 2.34-.19.05-.35-.14-.27-.32 4.73-11.29 9.89-17.54 9.89-17.54s-30.42 21.64-36.19 60.52c0 0 2.51-6.89 10.98-17.34.11-.14.33-.11.4.05 2.4 5.32 5.15 10.05 6.52 12.22-4.66 7.51-7.88 15.7-9.86 22.4-.07.23-.24.42-.47.51-7.05 2.68-8.84 5.2300001-8.84 5.2300001 1.1 3.75 3.25 7.4 5.96 10.84.24.3.36.67.34 1.05-.75 16.59 4.6 27.51 4.6 27.51 1.21-5.8 3.57-11.42 6.56-16.71.12-.21.4-.26.59-.11 6.96 5.53 14.16 10.37 17.02 12.08 1.48 3.77 5.7 13.55 11.34 23.59.12.21.02.48-.21.56-6.75 2.46-13.68 3.58-20.04 2.03 0 0 7.66 9.56 31.3 13.63 6.56 7.76 14.54 14.18 23.86 16.42 0 0-2.73-3.01-3.41-14.21-.01-.23.17-.42.4-.42 5.83.09 13.75.21 21-.31 2.57 2.03 8.17 6.48 13.64 9.31.27.14.29.52.03.68-9.61 5.82-16 6.32-16 6.32 43.52.93 69.66-27.49 69.66-27.49-7.17 4.72-15.45 7.66-23.69 9.4-.28.06-.52-.19-.46-.46 1.53-7.41 1.1-14.58.99-17.1 10.33-2.56 19.33-7.18 26-11.91.14-.09.31-.1.45 0 2.78 1.93 5.15 4.1 7.52 7.71 0 0 4.51-6.4 6.07-21.21 11.18-14.61 12.84-29.57 12.84-29.57-2.81 4.39-7.04 7.55-12 9.82m-93.73-92.3200001c.37-.58.98-.97 1.67-1.06 14.03-1.86 26.86-2.13 31.8-1.99 8.98 5.98 17.75 13.88 24.75 21.36.49.52.56 1.31.18 1.92-5 7.83-12.26 15.35-15.45 18.62-11.84 2.81-24.39 6.89-34.57 10.24-.99.33-2.08-.04-2.67-.9-7.73-11.25-12.64-20.9-14.57-24.48 2.09-9.38 5.01-17.73 8.87-23.72m-68.77 71.37c-1.14-7.36-1.89-15.1-1.98-18.64-.19-8.18 1.11-15.42 2.61-22.13.25-1.1.82-2.09 1.64-2.85 4.37-4.01 12.28-11.1 17.27-14.31 4.7-3.02 17.78-7.25 23.17-8.82 1.05-.3 2.16.16 2.7 1.11.65 1.14 1.33 2.28 2.04 3.39 4.25 6.62 8.92 12.33 10.89 14.79-2.61 10.39-3.72 22.04-4.23 31.87-.05.92-.63 1.73-1.49 2.07-13.64 5.33-23.95 9.51-27.42 11.11-9.37.4-18.3 2-24.33 3.05-.43.08-.83-.22-.9-.64m38.35 61.3800001c-.8.5-1.83.47-2.6-.07-6.9-4.9-15.14-11.16-22-17.58-4.05-6.93-7.17-15.8-9.35-23.36-.14-.49-.03-1.01.29-1.41 7.7-9.48 16.94-16.9900001 20.8-19.8500001 8.71 3.77 18.72 7.09 27.46 10.0100001.9.3 1.53 1.1 1.6 2.04 1.23 15.6 4.09 28.21 4.85 33.03-3.27 3.5-11.8 11.43-21.05 17.18m95.93-15.45c-6.63 11.12-11.66 17.82-13.27 19.86-2.19 3.1-7.77 11.17-16.44 19.33-.55.52-1.28.82-2.04.85-10.86.45-20.95-.31-24.88-1.17-3.33-1.38-11.08-4.87-20.23-9.95-.8-.44-1.27-1.3-1.21-2.21.48-7.11 2.73-17.25 4.72-27.96 4.92-8.67 10.03-18.56 15.33-26.68.56-.85 1.6-1.25 2.59-.98 15.86 4.34 29.61 7.63 35.2 8.89 7.65 8.89 15.06 15.14 20.04 19.01.31.24.39.68.19 1.01m11.47-21.19c-.23.48-.69.81-1.22.87-12.02 1.4-24.79-.28-29.72-1.05-8.22-8.23-17.12-17.38-23.68-25.3900001-.67-.82-.71-1.99-.09-2.85 9.36-13.07 17.92-23.44 21.55-27.55 10.35-2.26 20.67-4.26 27.64-4.55.53-.02 1.03.22 1.33.65 8.98 12.52 15.41 24.52 17.47 28.9-4.12 11.11-9.09 22.3300001-13.28 30.9700001" fill="#fff"></path></svg>