<svg width="63" height="63" viewBox="0 0 63 63" fill="none" xmlns="http://www.w3.org/2000/svg">
<g clip-path="url(#clip0_847_1129)">
<path fill-rule="evenodd" clip-rule="evenodd" d="M31.2773 0.27124C14.0516 0.27124 0.0878906 14.3133 0.0878906 31.6356C0.0878906 48.9579 14.0516 63 31.2773 63C48.503 63 62.4667 48.9579 62.4667 31.6356C62.4703 14.3133 48.503 0.27124 31.2773 0.27124ZM5.74934 16.8904C10.9493 7.82053 20.5365 2.18444 30.9366 2.0488L26.9008 28.93L5.58606 46.2523C0.467687 37.1289 0.52093 25.9603 5.74934 16.8904ZM31.3944 61.3759C20.966 61.4294 11.2972 55.929 5.96231 46.9127L31.2844 36.3722L56.7165 46.7485C51.4384 55.7933 41.7945 61.3509 31.3944 61.3759ZM35.5403 29.2869L31.6926 2.05237C42.0642 2.21657 51.5733 7.82767 56.7733 16.8404C62.0017 25.8567 62.1082 36.9397 57.0999 46.0631L35.5403 29.2869Z" fill="white"></path>
</g>
<defs>
<clipPath id="clip0_847_1129">
<rect width="63" height="63" fill="white"></rect>
</clipPath>
</defs>
</svg>