<svg width="108" height="32" viewBox="0 0 108 32" fill="none" xmlns="http://www.w3.org/2000/svg">
<path fill-rule="evenodd" clip-rule="evenodd" d="M8.28271 23.36C9.58195 24.64 11.5308 25.44 13.6421 25.44C15.7534 25.44 17.8647 24.8 19.0015 23.36C20.6256 21.76 21.1128 20.16 21.1128 16.96V0H27.2842V18.4C27.2842 22.24 26.1474 25.28 23.7113 27.52C21.1128 30.08 17.7023 31.36 13.6421 31.36C9.41955 31.36 6.17143 30.08 3.57293 27.52C1.13684 25.28 0 22.4 0 18.4V0H6.17143V16.96C6.17143 20.16 6.65865 21.76 8.28271 23.36ZM54.406 5.76H38.815V12.8H53.1068V18.4H38.815V21.44C38.815 24.64 39.9519 25.44 42.8752 25.44H54.406V31.2H42.5504C37.0286 31.2 32.6436 28.8 32.6436 22.08V2.24C32.6436 0.8 33.618 0 34.9173 0H54.406V5.76ZM64.9624 18.4V31.2H61.0647C59.7654 31.2 58.791 30.4 58.791 28.96V9.12C58.791 2.4 63.1759 0 68.6977 0H80.5534V5.76H69.0226C66.0993 5.76 64.9624 6.56 64.9624 9.76V12.8H79.2541V18.4H64.9624ZM93.5459 0C95.3323 0 95.982 0.96 96.3068 2.08L107.838 31.2H101.179L99.0677 25.44H91.4346L93.5459 19.68H96.794L92.7338 9.44L84.9383 31.2H78.7669L89.3233 2.08C89.6481 0.96 90.2977 0 92.0842 0H93.5459Z" fill="white"></path>
</svg>