<svg version="1.1" id="Ziggo_x5F_Black_x5F_FC" xmlns="http://www.w3.org/2000/svg" x="0px" y="0px" viewBox="0 0 285.19 98.47" fill='white'>
    <path class="st0" d="M91.76,83.41c1.14,1.14,1.71,2.64,1.71,4.14c0,1.78-0.8,3.22-1.71,4.13c-1.74,1.74-4.11,3.55-7.21,4.83
        c-2.6,1.08-5.46,1.68-8.45,1.68H49.1h-27c-6.1,0-11.62-2.47-15.62-6.47C2.47,87.72,0,82.2,0,76.1v-27V22.09
        c0-6.1,2.47-11.62,6.47-15.62c4-4,9.52-6.47,15.62-6.47h27H76.1c2.99,0,5.85,0.6,8.45,1.68c3.57,1.48,5.85,3.3,8.06,5.68
        c0.88,0.95,1.71,2.35,1.71,4.14c0,1.5-0.57,2.99-1.71,4.13c-1.14,1.14-2.64,1.71-4.13,1.71c-1.5,0-3.01-0.59-4.14-1.71
        c-1.56-1.56-2.41-2.36-4.2-3.12c-1.24-0.53-2.61-0.82-4.04-0.82H49.1h-27c-2.87,0-5.47,1.17-7.35,3.05
        c-1.88,1.88-3.05,4.48-3.05,7.35V49.1v27c0,2.87,1.17,5.47,3.05,7.35c1.88,1.88,4.48,3.05,7.35,3.05h27H76.1
        c1.43,0,2.8-0.29,4.04-0.82c1.12-0.47,2.29-1.21,3.35-2.27c1.12-1.12,2.64-1.71,4.13-1.71C89.12,81.7,90.62,82.27,91.76,83.41z
         M75.93,76.46c-0.21-4.27-3.09-10.83-10.33-11.69H39.83l29.68-28.42c1.25-1.2,4.07-5.25,2.06-9.61c-1.61-3.51-4.3-5-9.01-5H25.59
        c0.15,4.91,2.6,10.76,9.1,11.81h21.13L24.6,62.89c-1.27,1.22-3.35,4.96-1.71,8.75c1.48,3.42,3.99,4.82,8.63,4.82H75.93z
         M160.51,49.69v21.77c0,8.06-2.46,15.06-8.05,20.65c-5.02,5.02-11.37,7.09-18.34,7.09c-13.67,0-20.71-10.56-20.71-10.56
        c3.68-3.68,8.78-5.91,13.79-2.91c0.84,0.5,3.36,1.88,6.98,1.88c12.65,0,14.71-11.3,14.71-14.67c-4.38,2.65-9.33,3.97-14.82,3.97
        h-0.01c-7.15,0-13.41-2.26-18.63-6.72l-0.07-0.06c-5.12-4.91-7.73-10.96-7.78-18c-0.03-1.44-0.03-6.07,0-7.15
        c0.02-6.92,2.63-12.95,7.78-17.87c5.2-4.98,11.49-7.5,18.7-7.5h0h0c9.58,0,16.62,4.74,19.87,8.69c0.83,1,1.31,2.3,1.31,3.7
        c0,1.63-0.65,3.1-1.72,4.16c-1.06,1.06-2.54,1.72-4.16,1.72c-1.61,0-3.14-0.67-4.12-1.69c-3.65-3.8-7.12-4.99-11.17-4.99
        c-4.05,0-7.43,1.35-10.33,4.13c-2.88,2.71-4.23,5.8-4.27,9.72c-0.06,1.72-0.06,5.37,0,7.01c0.03,4.02,1.38,7.15,4.25,9.9
        c2.99,2.73,6.39,4.07,10.35,4.07c3.97,0,7.36-1.34,10.38-4.09c1.58-1.51,2.69-3.14,3.38-4.98c0.55-1.47,1.71-4.55,5.62-6.11
        C156.73,49.54,160.51,49.69,160.51,49.69z M215.75,50.86c-3.91,1.56-5.07,4.64-5.62,6.11c-0.69,1.83-1.81,3.47-3.38,4.98
        c-3.01,2.76-6.41,4.09-10.38,4.09c-3.97,0-7.36-1.34-10.35-4.07c-2.87-2.75-4.22-5.88-4.25-9.9c-0.06-1.65-0.06-5.3,0-7.01
        c0.04-3.92,1.4-7.01,4.27-9.72c2.9-2.78,6.28-4.13,10.33-4.13c4.05,0,7.52,1.2,11.17,4.99c0.98,1.02,2.52,1.69,4.13,1.69
        c1.63,0,3.1-0.66,4.16-1.72c1.07-1.06,1.72-2.54,1.72-4.16c0-1.4-0.48-2.7-1.31-3.7c-3.26-3.95-10.29-8.69-19.87-8.69h0h-0.01
        c-7.21,0-13.5,2.52-18.69,7.5c-5.15,4.93-7.76,10.96-7.78,17.87c-0.04,1.08-0.04,5.7,0,7.15c0.04,7.04,2.66,13.09,7.78,18l0.06,0.06
        c5.21,4.46,11.49,6.72,18.63,6.72h0.01c5.49,0,10.44-1.32,14.82-3.97c0,3.36-2.06,14.67-14.71,14.67c-3.61,0-6.13-1.38-6.97-1.88
        c-5-3-10.11-0.77-13.79,2.91c0,0,7.04,10.56,20.71,10.56c6.97,0,13.31-2.07,18.34-7.09c5.59-5.59,8.05-12.59,8.05-20.65V49.69
        C222.83,49.69,219.05,49.54,215.75,50.86z M285.17,45.03c-0.02-6.96-2.63-12.99-7.78-17.92c-5.2-4.98-11.49-7.5-18.7-7.5h0h0
        c-7.21,0-13.5,2.52-18.7,7.5c-5.14,4.93-7.76,10.96-7.78,17.87c-0.04,1.08-0.04,5.7,0,7.15c0.04,7.04,2.66,13.09,7.78,18l0.07,0.06
        c5.22,4.46,11.48,6.72,18.63,6.72h0.01c7.14,0,13.41-2.26,18.63-6.72l0.07-0.06c5.11-4.91,7.73-10.96,7.78-17.97
        C285.2,50.69,285.2,46.06,285.17,45.03 M258.69,66.04c-3.96,0-7.36-1.34-10.35-4.07c-2.87-2.75-4.22-5.88-4.25-9.9
        c-0.06-1.65-0.06-5.3,0-7.01c0.04-3.92,1.4-7.01,4.27-9.72c2.9-2.78,6.27-4.13,10.33-4.13c4.05,0,7.43,1.35,10.34,4.14
        c2.87,2.7,4.22,5.79,4.27,9.75c0.05,1.61,0.08,5.24,0,7.02c-0.04,3.98-1.39,7.11-4.23,9.83C266.05,64.7,262.65,66.04,258.69,66.04
         M98.2,21.73c-6.13,0.01-11.69,5.15-11.69,10.67v44.06c6.13-0.01,11.69-5.15,11.69-10.67V21.73z"></path>
    </svg>